<svg width="373" height="88" viewBox="0 0 373 88" fill="none" xmlns="http://www.w3.org/2000/svg">
<g clip-path="url(#clip0_18_3672)">
<path d="M163.853 23.9744H163.965L168.556 12.2975H174.2L166.417 29.5816V39.16H161.278V29.2544L153.641 12.2975H159.284L163.864 23.9744H163.853Z" fill="black"/>
<path d="M186.752 33.3384H180.089L178.589 39.1487H173.203L180.761 12.2861H186.114L193.672 39.1487H188.275L186.752 33.3384ZM181.153 29.2431H185.699L183.482 20.7138H183.37L181.153 29.2431Z" fill="black"/>
<path d="M200.973 28.3856V39.16H195.811V12.3087H203.795C206.448 12.3087 208.531 13.0082 210.043 14.3959C211.554 15.7836 212.327 17.7241 212.327 20.2062C212.327 21.5938 212.002 22.801 211.364 23.8277C210.726 24.8544 209.796 25.6554 208.587 26.2646C209.976 26.7272 210.983 27.5056 211.588 28.5887C212.193 29.6718 212.506 31.0256 212.506 32.6503V34.602C212.506 35.3579 212.596 36.1364 212.764 36.96C212.932 37.7836 213.234 38.3815 213.682 38.7651V39.1487H208.33C207.904 38.7538 207.635 38.1108 207.512 37.2195C207.4 36.3282 207.333 35.4369 207.333 34.5569V32.6728C207.333 31.3077 207.053 30.2472 206.493 29.5026C205.933 28.7579 205.127 28.3744 204.074 28.3744H200.962L200.973 28.3856ZM200.973 24.3241H203.761C204.869 24.3241 205.72 23.9856 206.292 23.32C206.863 22.6544 207.165 21.6954 207.165 20.4656C207.165 19.2359 206.874 18.2205 206.303 17.4759C205.732 16.7426 204.892 16.3703 203.795 16.3703H200.973V24.3241Z" fill="black"/>
<path d="M228.328 33.3384H221.666L220.165 39.1487H214.779L222.338 12.2861H227.69L235.248 39.1487H229.851L228.328 33.3384ZM222.73 29.2431H227.276L225.059 20.7138H224.947L222.73 29.2431Z" fill="black"/>
<path d="M237.398 39.16V12.2975H245.617C248.405 12.2975 250.701 13.3467 252.526 15.4452C254.34 17.5436 255.258 20.2288 255.258 23.5118V27.957C255.258 31.2513 254.351 33.9477 252.526 36.0236C250.712 38.1108 248.405 39.1488 245.617 39.1488H237.398V39.16ZM242.56 16.3703V35.0985H245.617C246.95 35.0985 248.025 34.4329 248.842 33.1016C249.659 31.7703 250.074 30.0554 250.074 27.957V23.478C250.074 21.4021 249.659 19.6985 248.842 18.3672C248.025 17.0359 246.95 16.3703 245.617 16.3703H242.56Z" fill="black"/>
<path d="M264.317 39.16H259.166V12.2975H264.317V39.16Z" fill="black"/>
<path d="M286.197 30.8113L286.231 30.9241C286.275 33.8011 285.548 35.9559 284.047 37.3887C282.547 38.8216 280.385 39.5323 277.597 39.5323C274.809 39.5323 272.458 38.6862 270.767 36.9826C269.087 35.279 268.236 32.8646 268.236 29.7169V21.7518C268.236 18.6267 269.054 16.201 270.677 14.4862C272.312 12.76 274.507 11.9026 277.284 11.9026C280.206 11.9026 282.446 12.6134 284.002 14.0462C285.559 15.479 286.32 17.6339 286.275 20.5221L286.242 20.6349H281.225C281.225 18.9087 280.923 17.7128 280.318 17.0134C279.714 16.3252 278.706 15.9754 277.284 15.9754C275.985 15.9754 275.022 16.4493 274.372 17.3857C273.723 18.3221 273.398 19.7662 273.398 21.7067V29.7169C273.398 31.6687 273.745 33.1241 274.44 34.0605C275.134 34.9969 276.186 35.4708 277.586 35.4708C278.874 35.4708 279.792 35.1323 280.352 34.4441C280.912 33.7559 281.192 32.5487 281.192 30.8H286.186L286.197 30.8113Z" fill="black"/>
<path d="M294.909 39.16H289.758V12.2975H294.909V39.16Z" fill="black"/>
<path d="M167.1 72.6226H167.212L172.206 52.6985H178.958V79.5611H173.83V62.638L173.718 62.6155L168.903 79.5498H165.443L160.662 62.7396L160.55 62.7621V79.5498H155.399V52.6873H162.117L167.078 72.6114L167.1 72.6226Z" fill="black"/>
<path d="M201.577 52.6872V70.2308C201.577 73.2769 200.704 75.6574 198.968 77.3723C197.233 79.0872 194.96 79.9333 192.16 79.9333C189.361 79.9333 187.121 79.0759 185.386 77.361C183.65 75.6462 182.788 73.2657 182.788 70.2308V52.6872H187.939V70.2308C187.939 72.0585 188.32 73.4574 189.07 74.4277C189.831 75.398 190.861 75.8718 192.16 75.8718C193.459 75.8718 194.534 75.3867 195.284 74.4277C196.035 73.4687 196.415 72.0698 196.415 70.2195V52.6759H201.577V52.6872ZM190.302 49.9005H185.711V46.2677H190.302V49.9005ZM198.632 49.9005H194.053V46.2677H198.632V49.9005Z" fill="black"/>
<path d="M210.278 75.4995H219.964V79.561H204.634V76.9436L214.085 56.7825H204.567V52.7097H219.762V55.2369L210.278 75.5107V75.4995Z" fill="black"/>
<path d="M235.237 73.7396H228.575L227.074 79.5498H221.688L229.246 52.6873H234.599L242.157 79.5498H236.76L235.237 73.7396ZM229.638 69.6442H234.185L231.967 61.1149H231.855L229.638 69.6442Z" fill="black"/>
<path d="M250.869 68.2791H249.458V79.5498H244.296V52.6873H249.458V63.6873H250.522L256.176 52.6873H262.581L254.889 64.9508L263.152 79.5498H256.557L250.858 68.2791H250.869Z" fill="black"/>
<path d="M270.98 49.9006H265.235V45.5118H270.98V49.9006ZM270.655 79.5498H265.504V52.6872H270.655V79.5498Z" fill="black"/>
<path d="M280.229 68.7754V79.5497H275.067V52.7097H283.05C285.704 52.7097 287.787 53.4092 289.299 54.7969C290.81 56.1846 291.583 58.1251 291.583 60.6072C291.583 61.9948 291.258 63.202 290.62 64.2287C289.982 65.2554 289.052 66.0564 287.843 66.6656C289.231 67.1282 290.239 67.9066 290.844 68.9897C291.449 70.0728 291.762 71.4266 291.762 73.0513V75.0031C291.762 75.759 291.852 76.5374 292.02 77.361C292.188 78.1846 292.49 78.7825 292.938 79.1661V79.5497H287.585C287.16 79.1548 286.891 78.5118 286.768 77.6205C286.656 76.7292 286.589 75.8379 286.589 74.9579V73.0738C286.589 71.7087 286.309 70.6482 285.749 69.9036C285.189 69.1589 284.383 68.7754 283.33 68.7754H280.218H280.229ZM280.229 64.7138H283.017C284.125 64.7138 284.976 64.3754 285.548 63.7097C286.119 63.0441 286.421 62.0851 286.421 60.8554C286.421 59.6256 286.13 58.6102 285.559 57.8656C284.988 57.1323 284.148 56.76 283.05 56.76H280.229V64.7138Z" fill="black"/>
<path d="M303.867 79.9672C301.997 79.9672 300.474 79.64 299.309 78.9856C298.145 78.3313 297.249 77.4287 296.611 76.2892C295.972 75.1384 295.547 73.7846 295.334 72.2277C295.121 70.6707 295.009 68.9784 295.009 67.162V65.4472C295.009 64.8831 295.032 64.3077 295.088 63.7323H307.539C307.495 62.401 307.405 61.2502 307.282 60.28C307.159 59.3097 306.957 58.5087 306.677 57.8656C306.397 57.2225 306.039 56.7487 305.591 56.4441C305.143 56.1395 304.561 55.9928 303.867 55.9928C302.747 55.9928 301.952 56.3877 301.504 57.1774C301.056 57.9672 300.743 59.1969 300.563 60.8666H295.2C295.345 59.5354 295.592 58.3282 295.928 57.2338C296.264 56.1508 296.756 55.2256 297.406 54.4584C298.055 53.6913 298.895 53.0933 299.936 52.6872C300.978 52.2697 302.277 52.0667 303.855 52.0667C305.882 52.0667 307.495 52.4164 308.693 53.1046C309.891 53.7928 310.809 54.7631 311.447 55.9928C312.086 57.2225 312.5 58.7118 312.679 60.4379C312.869 62.1641 312.959 64.0482 312.959 66.0902C312.959 68.1323 312.869 70.0728 312.679 71.7764C312.489 73.48 312.074 74.9354 311.447 76.1651C310.82 77.3949 309.891 78.3313 308.693 78.9969C307.495 79.6625 305.882 80.001 303.855 80.001L303.867 79.9672ZM303.867 76.1538C304.594 76.1538 305.188 76.0072 305.647 75.7025C306.106 75.3979 306.476 74.9128 306.756 74.2472C307.036 73.5815 307.226 72.7354 307.338 71.6974C307.45 70.6595 307.517 69.4072 307.539 67.9179H300.418C300.44 69.4072 300.496 70.6595 300.586 71.6974C300.675 72.7354 300.843 73.5815 301.09 74.2472C301.336 74.9128 301.683 75.3979 302.12 75.7025C302.557 76.0072 303.139 76.1538 303.867 76.1538Z" fill="black"/>
<path d="M321.503 75.4995H331.446V79.561H316.341V52.6985H321.503V75.4995Z" fill="black"/>
<path d="M342.655 79.9672C340.785 79.9672 339.262 79.64 338.097 78.9856C336.933 78.3313 336.037 77.4287 335.399 76.2892C334.761 75.1384 334.335 73.7846 334.122 72.2277C333.91 70.6707 333.798 68.9784 333.798 67.162V65.4472C333.798 64.8831 333.82 64.3077 333.876 63.7323H346.328C346.283 62.401 346.193 61.2502 346.07 60.28C345.947 59.3097 345.745 58.5087 345.465 57.8656C345.185 57.2225 344.827 56.7487 344.379 56.4441C343.931 56.1395 343.349 55.9928 342.655 55.9928C341.535 55.9928 340.74 56.3877 340.292 57.1774C339.844 57.9672 339.531 59.1969 339.351 60.8666H333.988C334.133 59.5354 334.38 58.3282 334.716 57.2338C335.052 56.1508 335.544 55.2256 336.194 54.4584C336.843 53.6913 337.683 53.0933 338.724 52.6872C339.766 52.2697 341.065 52.0667 342.644 52.0667C344.67 52.0667 346.283 52.4164 347.481 53.1046C348.679 53.7928 349.597 54.7631 350.235 55.9928C350.874 57.2225 351.288 58.7118 351.467 60.4379C351.658 62.1641 351.747 64.0482 351.747 66.0902C351.747 68.1323 351.658 70.0728 351.467 71.7764C351.277 73.48 350.863 74.9354 350.235 76.1651C349.608 77.3949 348.679 78.3313 347.481 78.9969C346.283 79.6625 344.67 80.001 342.644 80.001L342.655 79.9672ZM342.655 76.1538C343.383 76.1538 343.976 76.0072 344.435 75.7025C344.894 75.3979 345.264 74.9128 345.544 74.2472C345.824 73.5815 346.014 72.7354 346.126 71.6974C346.238 70.6595 346.305 69.4072 346.328 67.9179H339.206C339.228 69.4072 339.284 70.6595 339.374 71.6974C339.463 72.7354 339.631 73.5815 339.878 74.2472C340.124 74.9128 340.471 75.3979 340.908 75.7025C341.345 76.0072 341.927 76.1538 342.655 76.1538Z" fill="black"/>
<path d="M360.291 68.7754V79.5497H355.129V52.7097H363.113C365.766 52.7097 367.849 53.4092 369.361 54.7969C370.872 56.1846 371.645 58.1251 371.645 60.6072C371.645 61.9948 371.32 63.202 370.682 64.2287C370.044 65.2554 369.114 66.0564 367.905 66.6656C369.294 67.1282 370.301 67.9066 370.906 68.9897C371.511 70.0728 371.824 71.4266 371.824 73.0513V75.0031C371.824 75.759 371.914 76.5374 372.082 77.361C372.25 78.1846 372.552 78.7825 373 79.1661V79.5497H367.648C367.222 79.1548 366.953 78.5118 366.83 77.6205C366.718 76.7292 366.651 75.8379 366.651 74.9579V73.0738C366.651 71.7087 366.371 70.6482 365.811 69.9036C365.251 69.1589 364.445 68.7754 363.393 68.7754H360.28H360.291ZM360.291 64.7138H363.079C364.188 64.7138 365.039 64.3754 365.61 63.7097C366.181 63.0441 366.483 62.0851 366.483 60.8554C366.483 59.6256 366.192 58.6102 365.621 57.8656C365.05 57.1323 364.21 56.76 363.113 56.76H360.291V64.7138Z" fill="black"/>
<path d="M40.2438 28.5887L46.716 14.1815H66.0989C69.5701 14.1815 72.7166 16.2236 74.1499 19.4164L84.7763 43.0636L89.0985 33.4513L97.743 14.2154V14.1815H97.7542H117.103C117.451 14.1815 117.798 14.2154 118.145 14.2605C115.211 5.95692 107.373 0 98.1237 0H21.2641C19.0469 0 16.9082 0.338462 14.9039 0.981538L33.7717 43.0072L40.2438 28.6V28.5887Z" fill="#FFE000"/>
<path d="M130.764 88L119.388 63.0102V62.4123L110.273 42.1159L97.3287 70.9189H79.4575C75.0569 70.9189 71.0594 68.3241 69.2342 64.2738L59.2572 42.0594L54.6662 52.2584L46.2905 70.9077L38.609 88H130.753H130.764Z" fill="#FFE000"/>
<path d="M21.2305 70.9077L0 23.6359V66.5754C0 75.8718 5.88989 83.7692 14.1201 86.7364L18.8566 76.1877L21.2305 70.9189V70.9077Z" fill="#FFE000"/>
<path d="M18.8566 76.1877L21.2304 70.9077L18.8566 76.1877Z" fill="#FFE000"/>
<path d="M18.8566 76.1877L21.2304 70.9077L18.8566 76.1877Z" fill="url(#paint0_linear_18_3672)"/>
<path d="M89.0985 33.44L84.7763 43.0523L74.1499 19.4052C72.7166 16.2236 69.5701 14.1703 66.0989 14.1703H46.7272L59.2572 42.0595L69.2342 64.2739C71.0482 68.3128 75.0457 70.919 79.4575 70.919H97.2951L84.7763 43.0636L89.0985 33.4513V33.44Z" fill="#FFE000"/>
<path d="M84.7763 43.0523L74.1499 19.4052C72.7166 16.2236 69.5701 14.1703 66.0989 14.1703H46.7272L69.2342 64.2626C71.0482 68.3016 75.0457 70.9077 79.4575 70.9077H97.2951L84.7763 43.0523Z" fill="url(#paint1_linear_18_3672)"/>
<path d="M46.716 14.1815L40.2438 28.5887L46.716 14.1815Z" fill="#FFE000"/>
<path d="M46.716 14.1815L40.2438 28.5887L46.716 14.1815Z" fill="url(#paint2_linear_18_3672)"/>
<path d="M97.743 14.2041L89.0985 33.44L97.743 14.2041Z" fill="#FFE000"/>
<path d="M97.743 14.2041L89.0985 33.44L97.743 14.2041Z" fill="url(#paint3_linear_18_3672)"/>
<path d="M89.0985 33.44L84.7763 43.0523L97.2951 70.9077H97.3287L110.273 42.1159L97.743 14.2041L89.0985 33.44Z" fill="#FFE000"/>
<path d="M89.0985 33.44L84.7763 43.0523L97.2951 70.9077H97.3287L110.273 42.1159L97.743 14.2041L89.0985 33.44Z" fill="url(#paint4_linear_18_3672)"/>
<path d="M89.0985 33.44L84.7763 43.0523L97.2951 70.9077H97.3287L110.273 42.1159L97.743 14.2041L89.0985 33.44Z" fill="url(#paint5_linear_18_3672)"/>
<path d="M21.2304 70.9077L33.7716 42.9959L14.9038 0.981567C14.12 7.78465 9.62976 19.9805 0.929304 23.3426L0.0111084 23.6472L21.2416 70.919L21.2304 70.9077Z" fill="#FFE000"/>
<path d="M46.3017 70.9077L33.7717 43.0072L21.2305 70.9077H46.3017Z" fill="#FFE000"/>
<path d="M46.3017 70.9077L33.7717 43.0072L21.2305 70.9077H46.3017Z" fill="url(#paint6_linear_18_3672)"/>
<path d="M33.7717 43.0072L14.9039 0.981567C6.2706 3.70054 0 11.8236 0 21.4246V23.6359L21.2305 70.9077H46.3017L33.7717 42.9959V43.0072Z" fill="url(#paint7_linear_18_3672)"/>
<path d="M97.7318 14.1815L97.7429 14.2033L97.7318 14.1815Z" fill="#FFE000"/>
<path d="M97.7318 14.1815L97.7429 14.2033L97.7318 14.1815Z" fill="url(#paint8_linear_18_3672)"/>
<path d="M97.7534 14.1815H97.7318L97.7426 14.2028L97.7534 14.1815Z" fill="#FFE000"/>
<path d="M97.7534 14.1815H97.7318L97.7426 14.2028L97.7534 14.1815Z" fill="url(#paint9_linear_18_3672)"/>
<path d="M97.7534 14.1815H97.7318L97.7426 14.2028L97.7534 14.1815Z" fill="url(#paint10_linear_18_3672)"/>
<path d="M119.388 62.4123L110.273 42.1158L119.388 62.4123Z" fill="#FFE000"/>
<path d="M119.388 62.4123L110.273 42.1158L119.388 62.4123Z" fill="url(#paint11_linear_18_3672)"/>
<path d="M109.12 14.1815H97.7542V14.2041H97.743L110.273 42.1159L119.388 62.4123V21.4246C119.388 18.9087 118.94 16.5056 118.145 14.2605C117.798 14.2154 117.451 14.1815 117.104 14.1815H109.131H109.12Z" fill="#FFE000"/>
<path d="M109.12 14.1815H97.7542V14.2041H97.743L110.273 42.1159L119.388 62.4123V21.4246C119.388 18.9087 118.94 16.5056 118.145 14.2605C117.798 14.2154 117.451 14.1815 117.104 14.1815H109.131H109.12Z" fill="url(#paint12_linear_18_3672)"/>
<path d="M14.1201 86.7365L18.8566 76.1877L14.1201 86.7365Z" fill="#FFE000"/>
<path d="M14.1201 86.7365L18.8566 76.1877L14.1201 86.7365Z" fill="url(#paint13_linear_18_3672)"/>
<path d="M21.2305 70.9076L18.8566 76.1764L14.1201 86.7251C16.3596 87.5261 18.7558 87.9887 21.2641 87.9887H38.6202L46.3017 70.8964H21.2305V70.9076Z" fill="#FFE000"/>
<path d="M21.2305 70.9076L18.8566 76.1764L14.1201 86.7251C16.3596 87.5261 18.7558 87.9887 21.2641 87.9887H38.6202L46.3017 70.8964H21.2305V70.9076Z" fill="url(#paint14_linear_18_3672)"/>
<path d="M21.2305 70.9076L18.8566 76.1764L14.1201 86.7251C16.3596 87.5261 18.7558 87.9887 21.2641 87.9887H38.6202L46.3017 70.8964H21.2305V70.9076Z" fill="url(#paint15_linear_18_3672)"/>
<path d="M46.3017 70.9077L54.6774 52.2698L46.3017 70.9077Z" fill="#FFE000"/>
<path d="M46.3017 70.9077L54.6774 52.2698L46.3017 70.9077Z" fill="url(#paint16_linear_18_3672)"/>
<path d="M40.2438 28.5887L33.7717 43.0072L40.2438 28.5887Z" fill="#FFE000"/>
<path d="M40.2438 28.5887L33.7717 43.0072L40.2438 28.5887Z" fill="url(#paint17_linear_18_3672)"/>
<path d="M46.7272 14.1815H46.716L40.2438 28.5887L33.7717 43.0072L46.3017 70.9077L54.6774 52.2697L59.2572 42.0595L46.7272 14.1815Z" fill="#FFE000"/>
<path d="M46.7272 14.1815H46.716L40.2438 28.5887L33.7717 43.0072L46.3017 70.9077L54.6774 52.2697L59.2572 42.0595L46.7272 14.1815Z" fill="url(#paint18_linear_18_3672)"/>
<path d="M46.7272 14.1815H46.716L40.2438 28.5887L33.7717 43.0072L46.3017 70.9077L54.6774 52.2697L59.2572 42.0595L46.7272 14.1815Z" fill="url(#paint19_linear_18_3672)"/>
</g>
<defs>
<linearGradient id="paint0_linear_18_3672" x1="20.0099" y1="62.5816" x2="19.8735" y2="13.6287" gradientUnits="userSpaceOnUse">
<stop stop-color="#280064"/>
<stop offset="0.2" stop-color="#360787"/>
<stop offset="0.58" stop-color="#5115C7"/>
<stop offset="0.86" stop-color="#611DEF"/>
<stop offset="1" stop-color="#6821FF"/>
</linearGradient>
<linearGradient id="paint1_linear_18_3672" x1="72.0671" y1="62.4236" x2="71.9307" y2="13.4821" gradientUnits="userSpaceOnUse">
<stop stop-color="#280064"/>
<stop offset="0.2" stop-color="#360787"/>
<stop offset="0.58" stop-color="#5115C7"/>
<stop offset="0.86" stop-color="#611DEF"/>
<stop offset="1" stop-color="#6821FF"/>
</linearGradient>
<linearGradient id="paint2_linear_18_3672" x1="43.6031" y1="62.5138" x2="43.4553" y2="13.561" gradientUnits="userSpaceOnUse">
<stop stop-color="#280064"/>
<stop offset="0.2" stop-color="#360787"/>
<stop offset="0.58" stop-color="#5115C7"/>
<stop offset="0.86" stop-color="#611DEF"/>
<stop offset="1" stop-color="#6821FF"/>
</linearGradient>
<linearGradient id="paint3_linear_18_3672" x1="92.357" y1="26.3436" x2="81.7081" y2="51.0611" gradientUnits="userSpaceOnUse">
<stop stop-color="#280064"/>
<stop offset="0.2" stop-color="#360787"/>
<stop offset="0.58" stop-color="#5115C7"/>
<stop offset="0.86" stop-color="#611DEF"/>
<stop offset="1" stop-color="#6821FF"/>
</linearGradient>
<linearGradient id="paint4_linear_18_3672" x1="97.5863" y1="62.3559" x2="97.4385" y2="13.4144" gradientUnits="userSpaceOnUse">
<stop stop-color="#280064"/>
<stop offset="0.2" stop-color="#360787"/>
<stop offset="0.58" stop-color="#5115C7"/>
<stop offset="0.86" stop-color="#611DEF"/>
<stop offset="1" stop-color="#6821FF"/>
</linearGradient>
<linearGradient id="paint5_linear_18_3672" x1="102.558" y1="30.7436" x2="91.9091" y2="55.4611" gradientUnits="userSpaceOnUse">
<stop stop-color="#280064"/>
<stop offset="0.2" stop-color="#360787"/>
<stop offset="0.58" stop-color="#5115C7"/>
<stop offset="0.86" stop-color="#611DEF"/>
<stop offset="1" stop-color="#6821FF"/>
</linearGradient>
<linearGradient id="paint6_linear_18_3672" x1="33.7381" y1="62.5364" x2="33.6017" y2="13.5949" gradientUnits="userSpaceOnUse">
<stop stop-color="#280064"/>
<stop offset="0.2" stop-color="#360787"/>
<stop offset="0.58" stop-color="#5115C7"/>
<stop offset="0.86" stop-color="#611DEF"/>
<stop offset="1" stop-color="#6821FF"/>
</linearGradient>
<linearGradient id="paint7_linear_18_3672" x1="23.0781" y1="69.9036" x2="23.3054" y2="-1.5456" gradientUnits="userSpaceOnUse">
<stop stop-color="#280064"/>
<stop offset="0.2" stop-color="#360787"/>
<stop offset="0.58" stop-color="#5115C7"/>
<stop offset="0.86" stop-color="#611DEF"/>
<stop offset="1" stop-color="#6821FF"/>
</linearGradient>
<linearGradient id="paint8_linear_18_3672" x1="97.7318" y1="14.1924" x2="166.215" y2="14.1924" gradientUnits="userSpaceOnUse">
<stop offset="0.24" stop-color="white"/>
<stop offset="0.42" stop-color="#FAFAFA"/>
<stop offset="0.62" stop-color="#ECECEC"/>
<stop offset="0.83" stop-color="#D6D6D6"/>
<stop offset="1" stop-color="#C0C0C0"/>
</linearGradient>
<linearGradient id="paint9_linear_18_3672" x1="97.8719" y1="59.6927" x2="97.7454" y2="13.4567" gradientUnits="userSpaceOnUse">
<stop stop-color="#280064"/>
<stop offset="0.2" stop-color="#360787"/>
<stop offset="0.58" stop-color="#5115C7"/>
<stop offset="0.86" stop-color="#611DEF"/>
<stop offset="1" stop-color="#6821FF"/>
</linearGradient>
<linearGradient id="paint10_linear_18_3672" x1="97.7318" y1="14.1922" x2="164.584" y2="14.1922" gradientUnits="userSpaceOnUse">
<stop offset="0.24" stop-color="white"/>
<stop offset="0.42" stop-color="#FAFAFA"/>
<stop offset="0.62" stop-color="#ECECEC"/>
<stop offset="0.83" stop-color="#D6D6D6"/>
<stop offset="1" stop-color="#C0C0C0"/>
</linearGradient>
<linearGradient id="paint11_linear_18_3672" x1="115.032" y1="65.1764" x2="114.225" y2="14.5314" gradientUnits="userSpaceOnUse">
<stop stop-color="#280064"/>
<stop offset="0.2" stop-color="#360787"/>
<stop offset="0.58" stop-color="#5115C7"/>
<stop offset="0.86" stop-color="#611DEF"/>
<stop offset="1" stop-color="#6821FF"/>
</linearGradient>
<linearGradient id="paint12_linear_18_3672" x1="108.694" y1="62.322" x2="108.546" y2="13.3805" gradientUnits="userSpaceOnUse">
<stop stop-color="#280064"/>
<stop offset="0.2" stop-color="#360787"/>
<stop offset="0.58" stop-color="#5115C7"/>
<stop offset="0.86" stop-color="#611DEF"/>
<stop offset="1" stop-color="#6821FF"/>
</linearGradient>
<linearGradient id="paint13_linear_18_3672" x1="13.6722" y1="87.5488" x2="27.4348" y2="58.2383" gradientUnits="userSpaceOnUse">
<stop stop-color="#280064"/>
<stop offset="0.2" stop-color="#360787"/>
<stop offset="0.58" stop-color="#5115C7"/>
<stop offset="0.86" stop-color="#611DEF"/>
<stop offset="1" stop-color="#6821FF"/>
</linearGradient>
<linearGradient id="paint14_linear_18_3672" x1="30.1549" y1="62.5476" x2="30.0185" y2="13.6061" gradientUnits="userSpaceOnUse">
<stop stop-color="#280064"/>
<stop offset="0.2" stop-color="#360787"/>
<stop offset="0.58" stop-color="#5115C7"/>
<stop offset="0.86" stop-color="#611DEF"/>
<stop offset="1" stop-color="#6821FF"/>
</linearGradient>
<linearGradient id="paint15_linear_18_3672" x1="23.9515" y1="92.3774" x2="37.7141" y2="63.0669" gradientUnits="userSpaceOnUse">
<stop stop-color="#280064"/>
<stop offset="0.2" stop-color="#360787"/>
<stop offset="0.58" stop-color="#5115C7"/>
<stop offset="0.86" stop-color="#611DEF"/>
<stop offset="1" stop-color="#6821FF"/>
</linearGradient>
<linearGradient id="paint16_linear_18_3672" x1="63.7474" y1="29.6154" x2="47.8464" y2="67.3703" gradientUnits="userSpaceOnUse">
<stop stop-color="#280064"/>
<stop offset="0.2" stop-color="#360787"/>
<stop offset="0.58" stop-color="#5115C7"/>
<stop offset="0.86" stop-color="#611DEF"/>
<stop offset="1" stop-color="#6821FF"/>
</linearGradient>
<linearGradient id="paint17_linear_18_3672" x1="43.1664" y1="20.9508" x2="27.2654" y2="58.7057" gradientUnits="userSpaceOnUse">
<stop stop-color="#280064"/>
<stop offset="0.2" stop-color="#360787"/>
<stop offset="0.58" stop-color="#5115C7"/>
<stop offset="0.86" stop-color="#611DEF"/>
<stop offset="1" stop-color="#6821FF"/>
</linearGradient>
<linearGradient id="paint18_linear_18_3672" x1="46.5704" y1="62.5025" x2="46.434" y2="13.561" gradientUnits="userSpaceOnUse">
<stop stop-color="#280064"/>
<stop offset="0.2" stop-color="#360787"/>
<stop offset="0.58" stop-color="#5115C7"/>
<stop offset="0.86" stop-color="#611DEF"/>
<stop offset="1" stop-color="#6821FF"/>
</linearGradient>
<linearGradient id="paint19_linear_18_3672" x1="53.636" y1="25.362" x2="37.7463" y2="63.117" gradientUnits="userSpaceOnUse">
<stop stop-color="#280064"/>
<stop offset="0.2" stop-color="#360787"/>
<stop offset="0.58" stop-color="#5115C7"/>
<stop offset="0.86" stop-color="#611DEF"/>
<stop offset="1" stop-color="#6821FF"/>
</linearGradient>
<clipPath id="clip0_18_3672">
<rect width="373" height="88" fill="white"/>
</clipPath>
</defs>
</svg>
