<svg width="242" height="242" viewBox="0 0 242 242" fill="none" xmlns="http://www.w3.org/2000/svg">
<path fill-rule="evenodd" clip-rule="evenodd" d="M121 229.9C181.143 229.9 229.9 181.143 229.9 121C229.9 60.857 181.143 12.1 121 12.1C60.857 12.1 12.1 60.857 12.1 121C12.1 181.143 60.857 229.9 121 229.9ZM121 242C187.828 242 242 187.828 242 121C242 54.1717 187.828 0 121 0C54.1717 0 0 54.1717 0 121C0 187.828 54.1717 242 121 242Z" fill="#5F1CE8"/>
<path fill-rule="evenodd" clip-rule="evenodd" d="M185.551 74.167C186.742 75.2423 187.456 76.7462 187.538 78.3481C187.619 79.95 187.062 81.5188 185.987 82.7096L105.183 172.014L56.3234 125.374C55.2263 124.253 54.6076 122.749 54.5978 121.181C54.588 119.612 55.1879 118.101 56.2709 116.966C57.354 115.831 58.8355 115.161 60.4029 115.098C61.9703 115.034 63.5011 115.582 64.6724 116.626L104.542 154.68L177.015 74.5965C177.548 74.0071 178.192 73.5286 178.911 73.1884C179.629 72.8481 180.408 72.6527 181.201 72.6134C181.995 72.574 182.789 72.6915 183.538 72.9591C184.286 73.2268 184.975 73.6392 185.563 74.173L185.551 74.167Z" fill="#5F1CE8"/>
</svg>
