<svg width="1920" height="1044" viewBox="0 0 1920 1044" fill="none" xmlns="http://www.w3.org/2000/svg">
<g opacity="0.4" clip-path="url(#clip0_18_2946)">
<path d="M12.4454 490.729C11.2858 489.08 10.1299 487.435 8.97408 485.794C8.32128 485.016 7.67232 484.253 7.01952 483.475C8.256 485.181 9.49248 486.898 10.729 488.605C11.305 489.318 11.8694 490.012 12.4454 490.725M19.177 500.291L19.104 500.187L19.0848 500.164L19.177 500.291ZM13.4554 489.897C11.4163 486.914 9.408 484.008 7.3728 481.029C6.05952 479.537 4.75392 478.061 3.4368 476.562C5.47968 479.464 7.51872 482.359 9.57312 485.288C10.871 486.833 12.1613 488.363 13.4592 489.9L13.4554 489.897ZM22.7904 503.504L17.9136 496.391C16.8499 495.134 15.7824 493.857 14.7149 492.596C16.3738 494.954 18.0365 497.323 19.6915 499.673C20.7245 500.95 21.7613 502.234 22.7942 503.507L22.7904 503.504ZM31.4035 516.06C30.3936 514.591 29.3722 513.1 28.3546 511.62C27.6826 510.796 27.0029 509.945 26.3309 509.12C27.3869 510.619 28.4467 512.138 29.495 513.618C30.1286 514.43 30.7699 515.255 31.4035 516.064V516.06ZM1893.52 21.5252C1891.27 23.1814 1888.98 24.7994 1886.75 26.4825C1888.85 25.0409 1890.94 23.5878 1893.05 22.1654C1894.46 21.1494 1895.85 20.1142 1897.27 19.1097C1896.02 19.9149 1894.77 20.72 1893.52 21.529V21.5252ZM12.887 486.112C10.4717 482.489 8.01792 478.782 5.57184 475.093C3.94752 473.337 2.3232 471.601 0.69504 469.833C3.12192 473.414 5.55264 476.999 7.96032 480.519C9.60384 482.386 11.2474 484.253 12.887 486.112ZM23.063 501.307C20.7514 497.848 18.4627 494.444 16.1549 491.001C14.6496 489.298 13.129 487.565 11.616 485.852C13.9162 489.199 16.2125 492.542 18.5165 495.912C20.0294 497.703 21.5539 499.528 23.063 501.307ZM32.9741 516.094L27.0106 507.196C25.6742 505.624 24.3072 503.979 22.967 502.396C24.9638 505.309 26.9645 508.231 28.9574 511.126C30.2899 512.763 31.6454 514.461 32.9741 516.091V516.094ZM42.2362 529.916C40.6579 527.573 39.0643 525.189 37.4746 522.812C36.4608 521.569 35.4662 520.381 34.4486 519.139C36.0269 521.443 37.609 523.759 39.168 526.021C40.1933 527.324 41.2109 528.62 42.2362 529.916ZM50.9414 542.841C49.8586 541.234 48.8026 539.685 47.7158 538.075C47.2128 537.442 46.7213 536.821 46.2182 536.189C47.401 537.895 48.5914 539.608 49.7856 541.334C50.1734 541.844 50.5536 542.334 50.9414 542.844V542.841ZM1851.57 53.1136C1849.82 54.6012 1848.14 56.1463 1846.41 57.6454C1847.23 56.986 1848.05 56.3265 1848.88 55.6671C1851.66 53.3283 1854.49 51.0394 1857.3 48.7352C1855.38 50.1844 1853.48 51.6452 1851.57 53.1098L1851.57 53.1136ZM1873.91 34.6643C1870.74 37.2063 1867.62 39.8096 1864.49 42.3937C1867.4 40.2428 1870.29 38.0613 1873.23 35.9487C1876.17 33.6483 1879.1 31.3517 1882.07 29.0858C1879.34 30.93 1876.62 32.7933 1873.91 34.6643H1873.91ZM1895.32 18.0285C1891.51 20.904 1887.75 23.8486 1883.99 26.7816C1886.99 24.7726 1890.03 22.8134 1893.06 20.8465C1896.94 17.9787 1900.82 15.107 1904.76 12.2967C1901.59 14.1868 1898.45 16.0962 1895.33 18.0285H1895.32ZM22.0224 496.476C19.3958 492.454 16.7309 488.348 14.0774 484.264C12.3418 482.405 10.5907 480.503 8.8512 478.628C11.4931 482.604 14.1312 486.569 16.7501 490.495C18.5011 492.469 20.2752 494.513 22.0186 496.476H22.0224ZM32.4058 512.314C29.9213 508.515 27.4483 504.753 24.9715 500.977C23.3395 499.144 21.6883 497.269 20.0525 495.425C22.5754 499.19 25.0944 502.944 27.625 506.724C29.2262 508.61 30.8083 510.443 32.4058 512.314ZM42.4474 527.627C40.2086 524.219 37.9584 520.787 35.712 517.36C34.2451 515.646 32.8051 513.986 31.3344 512.264C33.5808 515.619 35.831 518.985 38.0659 522.313C39.5328 524.108 40.9805 525.844 42.4435 527.627H42.4474ZM52.1434 542.415C50.2387 539.52 48.3072 536.568 46.3795 533.627C45.0739 532.04 43.776 530.472 42.4666 528.877C44.4288 531.806 46.3872 534.72 48.3264 537.603C49.6051 539.221 50.8685 540.805 52.1434 542.415ZM61.7011 556.892C60.1229 554.5 58.5677 552.157 56.9894 549.772L54.0864 546.115C55.7069 548.503 57.335 550.911 58.9632 553.319L61.6973 556.892H61.7011ZM70.6637 570.434L67.8912 566.243L66.3667 564.254C67.3651 565.726 68.3635 567.21 69.3581 568.674L70.6637 570.434ZM1876.16 -13.0002H1878.22C1691.75 68.35 1536.02 229.885 1382.24 389.472C1288.82 486.423 1196.12 582.634 1097.64 659.694C823.096 874.541 503.842 940.348 0 458.182V457.089C503.754 939.424 822.816 873.755 1097.16 659.069C1195.58 582.051 1288.27 485.856 1381.67 388.924C1535.04 229.762 1690.35 68.6491 1876.16 -13.0002ZM1848.03 -13.0002H1850.15C1677.21 63.2393 1526.2 206.413 1375.46 349.384C1301.36 419.673 1227.32 489.9 1150.75 552.096C854.488 792.757 520.55 912.793 0 450.529V449.478C520.443 911.907 854.189 791.987 1150.25 551.486C1226.78 489.318 1300.82 419.094 1374.92 348.812C1525.2 206.271 1675.75 63.4962 1848.03 -13.0002ZM1813.94 -13.0002H1815.92C1656.4 58.5579 1511.33 184.114 1365.23 310.618C998.507 628.144 625.094 951.137 0 441.431V440.407C624.941 950.255 998.166 627.388 1364.71 310.02C1510.36 183.904 1654.99 58.7343 1813.94 -13.0002ZM1772.7 -13.0002H1774.62C1628.37 53.9878 1490.6 162.74 1350.89 273.06C979.615 566.209 594.486 869.932 0 430.642V429.622C594.328 869.035 979.292 565.461 1350.4 272.439C1489.65 162.483 1626.98 54.0836 1772.7 -13.0002ZM1723.64 -13.0002H1725.55C1592.37 49.0841 1463.25 141.948 1331.7 236.594C957.35 505.942 563.278 789.264 0 418.212V417.234C563.121 788.402 957.039 505.19 1331.25 235.95C1462.31 141.653 1590.97 49.1186 1723.64 -13.0002ZM1665.4 -13.0002H1667.26C1547.21 43.5861 1428.28 121.509 1306.85 201.103C931.123 447.385 531.395 709.268 0 403.827V402.891C531.229 708.428 930.824 446.634 1306.41 200.443C1427.36 121.167 1545.83 43.5516 1665.4 -13.0002ZM1596.35 -13.0002H1598.2C1491.65 37.2561 1384.61 101.2 1275.33 166.501C900.292 390.592 498.766 630.36 0 387.321V386.443C498.605 629.562 900.004 389.844 1274.92 165.826C1383.72 100.817 1490.28 37.1641 1596.35 -13.0002ZM1514.69 -13.0002H1516.56C1424.36 29.9753 1331.06 80.8758 1235.99 132.746C864.134 335.658 465.304 553.074 0 368.6V367.729C465.143 552.261 863.862 334.903 1235.62 132.052C1330.16 80.4617 1422.97 29.8373 1514.69 -13.0002H1514.69ZM1418.29 -13.0002H1420.21C1343.71 21.7935 1266.17 60.5555 1187.47 99.9155C821.852 282.737 430.871 478.157 0 347.739V346.88C430.71 477.336 821.595 281.982 1187.11 99.2062C1265.29 60.1146 1342.3 21.6133 1418.3 -13.004L1418.29 -13.0002ZM481.989 1105C377.979 989.408 259.165 838.42 122.231 645.953C252.173 834.157 365.779 985.555 465.773 1105H464.801C370.79 992.678 264.783 852.181 144.511 679.462C259.354 849.163 361.179 989.891 451.914 1105H450.993C351.802 979.152 239.374 822.72 111.233 631.391C104.087 621.005 96.841 610.392 89.5872 599.76C82.6138 589.834 75.6441 579.908 68.5901 569.797C62.473 561.274 56.2982 552.633 50.1082 543.945C43.1616 534.505 36.169 524.951 29.1341 515.297C23.1821 507.399 17.2147 499.466 11.2051 491.438C7.49184 486.645 3.75552 481.791 0.00384 476.907V473.759L0.88704 474.982C1.87776 476.167 2.84544 477.298 3.83232 478.475C2.54976 476.646 1.28256 474.852 0.00768 473.031V471.489C1.29024 472.946 2.55744 474.373 3.84 475.837C2.56896 473.974 1.29024 472.088 0.00768 470.197V467.931C0.96768 468.963 1.92384 469.99 2.88384 471.029L0.00768 466.701V465.298C2.06592 468.399 4.12032 471.497 6.1632 474.568C7.968 476.516 9.77664 478.471 11.5776 480.407C8.80128 476.148 6.0096 471.846 3.22176 467.552C2.1504 466.459 1.08288 465.378 0.01152 464.289V463.158L1.06368 464.228L0.01152 462.61V461.187L3.79776 467.015C499.68 972.427 808.243 945.416 1066.64 749.881C1178.61 665.15 1281.2 548.799 1385.54 430.458C1540.48 254.714 1699.31 74.6148 1898.52 -13.0002H1900.6C1700.68 74.2621 1541.44 254.81 1386.12 430.975C1281.75 549.347 1179.14 665.729 1067.11 750.51C808.865 945.926 500.636 973.278 5.94432 470.332C8.85504 474.814 11.7696 479.307 14.6611 483.743C504.33 1008.47 803.566 1011.65 1048.25 832.021C1168.96 743.41 1276.44 610.331 1386.97 473.472C1542.26 281.207 1703.6 81.5352 1916.14 -13.0002H1918.16C1704.91 81.1671 1543.21 281.288 1387.59 473.97C1277.03 610.871 1169.51 743.989 1048.73 832.662C804.227 1012.15 505.421 1009.47 17.1725 487.604C19.9795 491.913 22.775 496.196 25.5629 500.463C512.586 1046.72 804.38 1075.41 1037.56 908.886C1163.77 818.752 1272.86 671.43 1386.44 518.042C1538.8 312.286 1699.25 95.6291 1920 -8.74827V-7.79743C1699.57 96.5761 1539.28 312.968 1387.08 518.51C1273.46 671.951 1164.33 819.319 1038.02 909.526C805.064 1075.9 513.746 1047.73 28.3853 504.761C31.0349 508.802 33.673 512.824 36.3226 516.869C523.177 1086.27 808.946 1137.66 1032.12 982.246C1161.5 892.143 1269.91 732.567 1384.3 564.192C1533.01 345.304 1691.85 111.632 1920 -3.83305V-2.9474C1692.18 112.506 1533.51 345.964 1384.95 564.637C1270.53 733.069 1162.07 892.706 1032.57 982.894C809.664 1138.12 524.494 1087.44 39.6288 521.914C42.0864 525.668 44.5478 529.425 46.9901 533.14C342.171 891.928 561.466 1060.16 736.086 1105H732.998C559.584 1059.22 342.29 892.269 50.9184 539.133C53.1648 542.553 55.3958 545.942 57.623 549.32C290.031 842.044 474.324 1016.68 625.851 1105H624.28C474.094 1017.1 291.805 844.593 62.5997 556.839C64.5696 559.814 66.5434 562.797 68.521 565.787C268.961 826.673 432.914 999.836 570.251 1105H569.026C433.321 1000.92 271.715 830.633 74.6957 575.119C76.2048 577.4 77.7216 579.697 79.223 581.963C257.307 820.953 406.092 990.815 532.531 1105H531.444C407.021 992.54 261.028 826.305 86.8416 593.476C87.8246 594.953 88.7808 596.383 89.7523 597.847C250.556 819.91 387.118 985.739 504.572 1105H503.547C388.931 988.553 256.143 827.796 100.481 613.908L101.096 614.824C247.415 822.287 373.394 983.312 482.915 1105H481.997L481.989 1105ZM1920 5.70982C1917.37 7.34311 1914.74 8.9879 1912.12 10.648C1899 19.2937 1886.15 28.2884 1873.59 37.6204C1857.66 49.7972 1842.16 62.4648 1827.11 75.6462C1810.71 90.3611 1794.87 105.674 1779.49 121.455C1553.76 357.516 1438.24 700.806 1340.69 990.803C1327.52 1029.98 1314.67 1068.17 1301.92 1105H1301.08C1313.86 1068.1 1326.74 1029.81 1339.94 990.554C1428.63 726.931 1532.13 419.278 1719.77 188.094C1542.74 402.473 1438.2 685.52 1347.15 932.147C1324.88 992.46 1303.42 1050.58 1281.9 1105H1281.04C1302.6 1050.51 1324.1 992.291 1346.41 931.875C1446.33 661.208 1562.46 346.669 1772.82 127.099C1573.56 330.854 1456.24 621.074 1353.62 874.974C1320.55 956.792 1289 1034.83 1256.73 1105H1255.86C1288.18 1034.76 1319.77 956.619 1352.89 874.683C1461.36 606.317 1586.23 297.387 1806.89 92.7574C1808.06 91.6225 1809.21 90.4608 1810.39 89.3298C1598.72 278.972 1471.87 566.017 1360 819.319C1314.09 923.26 1270.7 1021.5 1224.98 1105.01H1224.08C1269.86 1021.45 1313.31 923.083 1359.28 819.001C1474.4 558.345 1605.37 261.976 1828.27 72.6556C1832.18 69.09 1836.17 65.5934 1840.13 62.0814C1620.92 236.66 1486.22 516.068 1366.15 765.206C1304.87 892.342 1247.4 1011.58 1184.43 1105H1183.48C1246.53 1011.56 1304.08 892.173 1365.43 764.861C1487.64 511.306 1624.98 226.407 1851.1 52.4503C1855.69 48.532 1860.36 44.7095 1865.04 40.8793C1641.19 200.225 1499.59 469.645 1371.91 712.661C1291.85 865.044 1217.24 1007.02 1131.23 1105H1130.18C1216.32 1007.08 1291.03 864.91 1371.21 712.297C1500.63 465.98 1644.34 192.565 1873.46 33.9895C1878.23 30.1632 1883.07 26.402 1887.94 22.6638C1660.51 166.75 1512.33 425.5 1377.11 661.714C1272.84 843.861 1176.26 1012.57 1056.92 1105H1055.64C1175.22 1012.81 1271.97 843.803 1376.42 661.319C1513.17 422.445 1663.16 160.527 1894.92 17.3192C1899.89 13.5772 1904.92 9.89657 1909.97 6.25041C1679.25 135.02 1524.5 383.115 1381.54 612.37C1267.98 794.49 1161.84 964.701 1030.91 1053.8C997.497 1076.54 962.477 1093.99 925.309 1105H922.353C960.461 1094.08 996.307 1076.39 1030.46 1053.15C1161.25 964.146 1267.35 793.999 1380.87 611.956C1525.12 380.627 1681.37 130.124 1915.53 2.24386C1917.01 1.18951 1918.51 0.138988 1920.01 -0.90003V0.760099C1918.63 1.49623 1917.26 2.23236 1915.9 2.98C1911.58 6.04721 1907.34 9.20261 1903.08 12.3388C1906.51 10.2761 1909.97 8.24794 1913.44 6.23891C1915.63 4.71681 1917.81 3.19854 1920.01 1.6841V3.39407C1917.95 4.56728 1915.89 5.76349 1913.84 6.95587C1910.78 9.07225 1907.73 11.1963 1904.71 13.3587C1907.06 11.8864 1909.47 10.487 1911.84 9.04158C1914.57 7.18975 1917.26 5.29958 1920.01 3.46692V5.71749L1920 5.70982ZM0 323.485C395.048 405.1 772.289 231.334 1127.7 67.5219C1187.47 39.9706 1246.63 12.7146 1305.15 -13.0002H1307.12C1248.06 12.9254 1188.36 40.4307 1128.03 68.2388C772.531 232.093 395.205 405.897 0 324.305V323.485Z" fill="url(#paint0_linear_18_2946)"/>
</g>
<defs>
<linearGradient id="paint0_linear_18_2946" x1="960.006" y1="-13.004" x2="960.006" y2="1105.01" gradientUnits="userSpaceOnUse">
<stop stop-color="#5F1CE8" stop-opacity="0.4"/>
<stop offset="1" stop-color="#5F1CE8" stop-opacity="0.4"/>
</linearGradient>
<clipPath id="clip0_18_2946">
<rect width="1920" height="1118" fill="white" transform="translate(0 -13)"/>
</clipPath>
</defs>
</svg>
